<svg width="42" height="32" viewBox="0 0 42 32" fill="none" xmlns="http://www.w3.org/2000/svg">
<rect width="42" height="32" fill="#35353C"/>
<path fill-rule="evenodd" clip-rule="evenodd" d="M32.285 26H9.715C8.769 26 8 25.253 8 24.333V7.668C8 6.748 8.769 6 9.715 6H32.285C33.23 6 34 6.748 34 7.668V24.333C34 25.253 33.23 26 32.285 26ZM32.53 7.668C32.53 7.539 32.417 7.43 32.285 7.43H9.715C9.582 7.43 9.47 7.539 9.47 7.668V20.16L13.922 16.867C14.598 16.367 15.649 16.322 16.368 16.762L20.562 19.33C20.717 19.424 20.99 19.387 21.112 19.256L26.213 13.776C26.532 13.434 26.974 13.246 27.427 13.263C27.88 13.279 28.307 13.497 28.598 13.861L32.53 18.766V7.668ZM32.53 21.091L27.439 14.74C27.411 14.705 27.386 14.692 27.373 14.691C27.356 14.692 27.334 14.702 27.303 14.735L22.203 20.215C21.602 20.86 20.537 21.003 19.779 20.538L15.585 17.971C15.388 17.85 14.998 17.867 14.812 18.005L9.47 21.957V24.333C9.47 24.462 9.582 24.571 9.715 24.571H32.285C32.417 24.571 32.53 24.462 32.53 24.333V21.091ZM18.864 15.676C17.429 15.676 16.261 14.54 16.261 13.145C16.261 11.749 17.429 10.613 18.864 10.613C20.3 10.613 21.468 11.749 21.468 13.145C21.468 14.54 20.3 15.676 18.864 15.676ZM18.864 12.043C18.239 12.043 17.731 12.537 17.731 13.145C17.731 13.753 18.239 14.247 18.864 14.247C19.49 14.247 19.998 13.753 19.998 13.145C19.998 12.537 19.49 12.043 18.864 12.043Z" fill="white"/>
</svg>
