<svg width="24" height="24" viewBox="0 0 24 24" fill="none" xmlns="http://www.w3.org/2000/svg">
<path fill-rule="evenodd" clip-rule="evenodd" d="M20.2868 13.8676C19.812 14.5606 19.1584 15.1463 18.3281 15.6235C18.3956 15.7833 18.4642 15.928 18.534 16.061C18.6049 16.194 18.6881 16.3211 18.7849 16.4436C18.8828 16.5661 18.9581 16.663 19.011 16.7318C19.065 16.8018 19.1516 16.8998 19.272 17.0258C19.3935 17.1518 19.47 17.2346 19.5037 17.2743C19.5105 17.2801 19.524 17.2953 19.5443 17.3186C19.5645 17.342 19.5791 17.3583 19.5893 17.3676C19.5994 17.3781 19.6117 17.3945 19.6286 17.4178C19.6455 17.4411 19.6567 17.4586 19.6646 17.4726L19.6894 17.5228C19.6894 17.5228 19.6961 17.5426 19.7096 17.5811C19.722 17.622 19.7243 17.643 19.7141 17.6465C19.704 17.65 19.7006 17.671 19.704 17.7106C19.6838 17.804 19.641 17.8763 19.5735 17.93C19.5071 17.9825 19.4329 18.0058 19.353 17.9988C19.0177 17.9521 18.7297 17.8996 18.489 17.8401C17.4574 17.5753 16.527 17.1506 15.6968 16.5673C15.0938 16.6735 14.5042 16.726 13.9282 16.726C12.1136 16.726 10.533 16.2885 9.1875 15.4146C9.57562 15.4403 9.87037 15.4543 10.0717 15.4543C11.1495 15.4543 12.1845 15.3038 13.1745 15.0063C14.1656 14.7076 15.0499 14.2806 15.8273 13.7241C16.6643 13.114 17.3066 12.4116 17.7555 11.616C18.2044 10.8203 18.4282 9.97915 18.4282 9.09015C18.4282 8.58032 18.3517 8.07632 18.1976 7.57932C19.0616 8.04949 19.7445 8.63982 20.2463 9.34915C20.7491 10.0585 21 10.8203 21 11.6358C21 12.4315 20.7626 13.1746 20.2868 13.8676ZM13.6223 13.5001C12.5344 13.954 11.3509 14.1815 10.0717 14.1815C9.49575 14.1815 8.90625 14.1278 8.30325 14.0216C7.473 14.605 6.54263 15.0296 5.511 15.2945C5.27025 15.354 4.98225 15.4076 4.647 15.4531H4.61775C4.5435 15.4531 4.47487 15.4275 4.41075 15.3738C4.34775 15.3213 4.3095 15.2513 4.296 15.1661C4.28925 15.1451 4.28587 15.1241 4.28587 15.1008C4.28587 15.0775 4.287 15.0565 4.29037 15.0366C4.29375 15.0168 4.3005 14.997 4.31062 14.9771L4.3365 14.927C4.3365 14.927 4.34775 14.9095 4.37137 14.8721C4.395 14.836 4.40737 14.8196 4.41075 14.8231C4.41412 14.8266 4.42987 14.8091 4.45687 14.773C4.48387 14.7368 4.49625 14.7216 4.49625 14.7286C4.53 14.689 4.60763 14.6061 4.728 14.4801C4.84837 14.3541 4.935 14.2561 4.989 14.1861C5.043 14.1173 5.11838 14.0216 5.21513 13.8991C5.31187 13.7755 5.39625 13.6483 5.466 13.5153C5.53688 13.3835 5.6055 13.2376 5.67188 13.0778C4.84162 12.6006 4.18913 12.0138 3.71325 11.3185C3.23737 10.622 3 9.87998 3 9.09015C3 8.16965 3.315 7.31799 3.94387 6.53516C4.57387 5.75349 5.43225 5.13516 6.52012 4.68133C7.60913 4.2275 8.79262 4 10.0717 4C11.3509 4 12.5344 4.22633 13.6223 4.68133C14.7101 5.13516 15.5696 5.75349 16.1985 6.53516C16.8285 7.31799 17.1424 8.16965 17.1424 9.09015C17.1424 10.0118 16.8285 10.8635 16.1985 11.6463C15.5696 12.428 14.7101 13.0463 13.6223 13.5001ZM15.069 7.19199C14.5425 6.60166 13.8349 6.13383 12.9439 5.78966C12.054 5.4455 11.0955 5.27283 10.0717 5.27283C9.04687 5.27283 8.0895 5.4455 7.1985 5.78966C6.30863 6.13383 5.59987 6.60166 5.0745 7.19199C4.54912 7.78115 4.28587 8.41465 4.28587 9.09015C4.28587 9.63498 4.46363 10.1576 4.818 10.6616C5.1735 11.1656 5.67188 11.6031 6.31538 11.9741L7.28963 12.5306L6.9375 13.366C7.16587 13.2341 7.37287 13.1046 7.56075 12.9786L8.00175 12.6706L8.535 12.7698C9.057 12.862 9.56887 12.9086 10.0717 12.9086C11.0966 12.9086 12.054 12.7371 12.9439 12.3918C13.8349 12.0476 14.5425 11.5798 15.069 10.9895C15.5944 10.4003 15.8565 9.76681 15.8565 9.09015C15.8565 8.41465 15.5944 7.78115 15.069 7.19199Z" fill="#35353C"/>
</svg>
