<svg width="157" height="33" viewBox="0 0 157 33" fill="none" xmlns="http://www.w3.org/2000/svg">
<path d="M11.684 17.006C12.762 17.006 13.693 16.845 14.477 16.523C15.261 16.201 15.905 15.753 16.409 15.179C16.927 14.591 17.305 13.898 17.543 13.1C17.795 12.302 17.921 11.42 17.921 10.454C17.921 9.768 17.823 9.138 17.627 8.564C17.431 7.99 17.13 7.507 16.724 7.115C16.318 6.709 15.807 6.394 15.191 6.17C14.589 5.946 13.868 5.834 13.028 5.834H9.248L7.883 17.006H11.684ZM13.553 1.634C15.275 1.634 16.752 1.844 17.984 2.264C19.23 2.67 20.252 3.244 21.05 3.986C21.848 4.728 22.436 5.61 22.814 6.632C23.206 7.64 23.402 8.753 23.402 9.971C23.402 11.595 23.143 13.1 22.625 14.486C22.121 15.858 21.358 17.048 20.336 18.056C19.314 19.05 18.033 19.834 16.493 20.408C14.967 20.968 13.182 21.248 11.138 21.248H7.358L6.035 32H0.617L4.313 1.634H13.553ZM37.0888 13.856C36.8928 13.842 36.7038 13.835 36.5218 13.835C36.3538 13.821 36.1858 13.814 36.0178 13.814C34.8558 13.814 33.7778 14.08 32.7838 14.612C31.7898 15.144 30.9288 15.865 30.2008 16.775C29.4868 17.671 28.9198 18.721 28.4998 19.925C28.0938 21.115 27.8908 22.375 27.8908 23.705C27.8908 25.217 28.1288 26.323 28.6048 27.023C29.0808 27.723 29.7318 28.073 30.5578 28.073C31.1318 28.073 31.6918 27.877 32.2378 27.485C32.7978 27.079 33.3228 26.533 33.8128 25.847C34.3168 25.147 34.7718 24.328 35.1778 23.39C35.5978 22.452 35.9618 21.444 36.2698 20.366L37.0888 13.856ZM35.6608 27.506C34.7088 28.976 33.6308 30.145 32.4268 31.013C31.2368 31.881 29.9348 32.315 28.5208 32.315C27.7088 32.315 26.9458 32.154 26.2318 31.832C25.5318 31.51 24.9158 31.034 24.3838 30.404C23.8658 29.76 23.4528 28.962 23.1448 28.01C22.8508 27.044 22.7038 25.917 22.7038 24.629C22.7038 23.341 22.8648 22.088 23.1868 20.87C23.5088 19.652 23.9638 18.511 24.5518 17.447C25.1538 16.369 25.8748 15.382 26.7148 14.486C27.5548 13.59 28.4928 12.82 29.5288 12.176C30.5788 11.532 31.7058 11.035 32.9098 10.685C34.1278 10.321 35.4088 10.139 36.7528 10.139C37.7188 10.139 38.6848 10.209 39.6508 10.349C40.6308 10.489 41.5828 10.741 42.5068 11.105L39.9238 32H37.1728C36.5148 32 36.0668 31.839 35.8288 31.517C35.6048 31.181 35.4928 30.768 35.4928 30.278L35.6608 27.506ZM44.7331 32L48.5131 0.793999H53.6371L49.8361 32H44.7331ZM63.5399 28.325C64.4079 28.325 65.1919 28.08 65.8919 27.59C66.5919 27.086 67.1869 26.421 67.6769 25.595C68.1669 24.755 68.5449 23.782 68.8109 22.676C69.0769 21.57 69.2099 20.408 69.2099 19.19C69.2099 17.44 68.9159 16.159 68.3279 15.347C67.7399 14.521 66.8439 14.108 65.6399 14.108C64.7719 14.108 63.9809 14.353 63.2669 14.843C62.5669 15.333 61.9719 15.998 61.4819 16.838C60.9919 17.664 60.6139 18.63 60.3479 19.736C60.0819 20.842 59.9489 22.011 59.9489 23.243C59.9489 24.993 60.2429 26.281 60.8309 27.107C61.4189 27.919 62.3219 28.325 63.5399 28.325ZM63.0569 32.315C61.8669 32.315 60.7679 32.119 59.7599 31.727C58.7519 31.321 57.8769 30.733 57.1349 29.963C56.3929 29.193 55.8119 28.248 55.3919 27.128C54.9719 26.008 54.7619 24.727 54.7619 23.285C54.7619 21.423 55.0629 19.687 55.6649 18.077C56.2669 16.467 57.0789 15.074 58.1009 13.898C59.1369 12.722 60.3409 11.798 61.7129 11.126C63.0849 10.454 64.5479 10.118 66.1019 10.118C67.2919 10.118 68.3909 10.321 69.3989 10.727C70.4209 11.119 71.2959 11.7 72.0239 12.47C72.7659 13.24 73.3469 14.185 73.7669 15.305C74.1869 16.425 74.3969 17.706 74.3969 19.148C74.3969 20.996 74.0959 22.725 73.4939 24.335C72.8919 25.931 72.0729 27.324 71.0369 28.514C70.0149 29.69 68.8179 30.621 67.4459 31.307C66.0739 31.979 64.6109 32.315 63.0569 32.315ZM101.712 20.576L99.6543 10.181C99.5703 9.705 99.4723 9.152 99.3603 8.522C99.2483 7.892 99.1363 7.206 99.0243 6.464C98.7443 7.206 98.4713 7.892 98.2053 8.522C97.9393 9.152 97.7013 9.712 97.4913 10.202L92.8923 20.576H101.712ZM109.629 32H105.408C104.932 32 104.561 31.888 104.295 31.664C104.043 31.426 103.861 31.125 103.749 30.761L102.489 24.419H91.1703L88.3563 30.761C88.2023 31.083 87.9503 31.37 87.6003 31.622C87.2643 31.874 86.8723 32 86.4243 32H82.1403L96.8193 1.634H102.384L109.629 32ZM112.04 32L115.82 0.793999H120.944L117.143 32H112.04ZM123.812 27.611C123.812 27.513 123.812 27.401 123.812 27.275C123.812 27.135 123.819 26.939 123.833 26.687C123.861 26.421 123.896 26.078 123.938 25.658C123.994 25.224 124.064 24.671 124.148 23.999L125.345 14.339H123.308C123.056 14.339 122.846 14.248 122.678 14.066C122.524 13.884 122.475 13.611 122.531 13.247L122.762 11.189L126.038 10.622L127.76 4.742C127.858 4.462 128.005 4.245 128.201 4.091C128.397 3.937 128.642 3.86 128.936 3.86H131.708L130.868 10.643H136.076L135.635 14.339H130.406L129.251 23.726C129.181 24.3 129.125 24.755 129.083 25.091C129.041 25.427 129.006 25.693 128.978 25.889C128.964 26.071 128.957 26.204 128.957 26.288C128.957 26.358 128.957 26.407 128.957 26.435C128.957 26.967 129.083 27.387 129.335 27.695C129.601 28.003 129.972 28.157 130.448 28.157C130.742 28.157 130.994 28.122 131.204 28.052C131.414 27.968 131.596 27.884 131.75 27.8C131.904 27.716 132.044 27.639 132.17 27.569C132.296 27.485 132.415 27.443 132.527 27.443C132.681 27.443 132.8 27.485 132.884 27.569C132.968 27.639 133.045 27.751 133.115 27.905L134.228 30.425C133.458 31.055 132.604 31.531 131.666 31.853C130.742 32.175 129.797 32.336 128.831 32.336C127.305 32.336 126.094 31.923 125.198 31.097C124.316 30.271 123.854 29.109 123.812 27.611ZM145.776 28.325C146.644 28.325 147.428 28.08 148.128 27.59C148.828 27.086 149.423 26.421 149.913 25.595C150.403 24.755 150.781 23.782 151.047 22.676C151.313 21.57 151.446 20.408 151.446 19.19C151.446 17.44 151.152 16.159 150.564 15.347C149.976 14.521 149.08 14.108 147.876 14.108C147.008 14.108 146.217 14.353 145.503 14.843C144.803 15.333 144.208 15.998 143.718 16.838C143.228 17.664 142.85 18.63 142.584 19.736C142.318 20.842 142.185 22.011 142.185 23.243C142.185 24.993 142.479 26.281 143.067 27.107C143.655 27.919 144.558 28.325 145.776 28.325ZM145.293 32.315C144.103 32.315 143.004 32.119 141.996 31.727C140.988 31.321 140.113 30.733 139.371 29.963C138.629 29.193 138.048 28.248 137.628 27.128C137.208 26.008 136.998 24.727 136.998 23.285C136.998 21.423 137.299 19.687 137.901 18.077C138.503 16.467 139.315 15.074 140.337 13.898C141.373 12.722 142.577 11.798 143.949 11.126C145.321 10.454 146.784 10.118 148.338 10.118C149.528 10.118 150.627 10.321 151.635 10.727C152.657 11.119 153.532 11.7 154.26 12.47C155.002 13.24 155.583 14.185 156.003 15.305C156.423 16.425 156.633 17.706 156.633 19.148C156.633 20.996 156.332 22.725 155.73 24.335C155.128 25.931 154.309 27.324 153.273 28.514C152.251 29.69 151.054 30.621 149.682 31.307C148.31 31.979 146.847 32.315 145.293 32.315Z" fill="#333333"/>
</svg>
