<svg width="135" height="28" viewBox="0 0 135 28" fill="none" xmlns="http://www.w3.org/2000/svg">
<path d="M9.872 14.148C10.796 14.148 11.594 14.01 12.266 13.734C12.938 13.458 13.49 13.074 13.922 12.582C14.366 12.078 14.69 11.484 14.894 10.8C15.11 10.116 15.218 9.36 15.218 8.532C15.218 7.944 15.134 7.404 14.966 6.912C14.798 6.42 14.54 6.006 14.192 5.67C13.844 5.322 13.406 5.052 12.878 4.86C12.362 4.668 11.744 4.572 11.024 4.572H7.784L6.614 14.148H9.872ZM11.474 0.971998C12.95 0.971998 14.216 1.152 15.272 1.512C16.34 1.86 17.216 2.352 17.9 2.988C18.584 3.624 19.088 4.38 19.412 5.256C19.748 6.12 19.916 7.074 19.916 8.118C19.916 9.51 19.694 10.8 19.25 11.988C18.818 13.164 18.164 14.184 17.288 15.048C16.412 15.9 15.314 16.572 13.994 17.064C12.686 17.544 11.156 17.784 9.404 17.784H6.164L5.03 27H0.386L3.554 0.971998H11.474ZM31.6475 11.448C31.4795 11.436 31.3175 11.43 31.1615 11.43C31.0175 11.418 30.8735 11.412 30.7295 11.412C29.7335 11.412 28.8095 11.64 27.9575 12.096C27.1055 12.552 26.3675 13.17 25.7435 13.95C25.1315 14.718 24.6455 15.618 24.2855 16.65C23.9375 17.67 23.7635 18.75 23.7635 19.89C23.7635 21.186 23.9675 22.134 24.3755 22.734C24.7835 23.334 25.3415 23.634 26.0495 23.634C26.5415 23.634 27.0215 23.466 27.4895 23.13C27.9695 22.782 28.4195 22.314 28.8395 21.726C29.2715 21.126 29.6615 20.424 30.0095 19.62C30.3695 18.816 30.6815 17.952 30.9455 17.028L31.6475 11.448ZM30.4235 23.148C29.6075 24.408 28.6835 25.41 27.6515 26.154C26.6315 26.898 25.5155 27.27 24.3035 27.27C23.6075 27.27 22.9535 27.132 22.3415 26.856C21.7415 26.58 21.2135 26.172 20.7575 25.632C20.3135 25.08 19.9595 24.396 19.6955 23.58C19.4435 22.752 19.3175 21.786 19.3175 20.682C19.3175 19.578 19.4555 18.504 19.7315 17.46C20.0075 16.416 20.3975 15.438 20.9015 14.526C21.4175 13.602 22.0355 12.756 22.7555 11.988C23.4755 11.22 24.2795 10.56 25.1675 10.008C26.0675 9.456 27.0335 9.03 28.0655 8.73C29.1095 8.418 30.2075 8.262 31.3595 8.262C32.1875 8.262 33.0155 8.322 33.8435 8.442C34.6835 8.562 35.4995 8.778 36.2915 9.09L34.0775 27H31.7195C31.1555 27 30.7715 26.862 30.5675 26.586C30.3755 26.298 30.2795 25.944 30.2795 25.524L30.4235 23.148ZM38.1998 27L41.4398 0.251999H45.8318L42.5738 27H38.1998ZM54.3199 23.85C55.0639 23.85 55.7359 23.64 56.3359 23.22C56.9359 22.788 57.4459 22.218 57.8659 21.51C58.2859 20.79 58.6099 19.956 58.8379 19.008C59.0659 18.06 59.1799 17.064 59.1799 16.02C59.1799 14.52 58.9279 13.422 58.4239 12.726C57.9199 12.018 57.1519 11.664 56.1199 11.664C55.3759 11.664 54.6979 11.874 54.0859 12.294C53.4859 12.714 52.9759 13.284 52.5559 14.004C52.1359 14.712 51.8119 15.54 51.5839 16.488C51.3559 17.436 51.2419 18.438 51.2419 19.494C51.2419 20.994 51.4939 22.098 51.9979 22.806C52.5019 23.502 53.2759 23.85 54.3199 23.85ZM53.9059 27.27C52.8859 27.27 51.9439 27.102 51.0799 26.766C50.2159 26.418 49.4659 25.914 48.8299 25.254C48.1939 24.594 47.6959 23.784 47.3359 22.824C46.9759 21.864 46.7959 20.766 46.7959 19.53C46.7959 17.934 47.0539 16.446 47.5699 15.066C48.0859 13.686 48.7819 12.492 49.6579 11.484C50.5459 10.476 51.5779 9.684 52.7539 9.108C53.9299 8.532 55.1839 8.244 56.5159 8.244C57.5359 8.244 58.4779 8.418 59.3419 8.766C60.2179 9.102 60.9679 9.6 61.5919 10.26C62.2279 10.92 62.7259 11.73 63.0859 12.69C63.4459 13.65 63.6259 14.748 63.6259 15.984C63.6259 17.568 63.3679 19.05 62.8519 20.43C62.3359 21.798 61.6339 22.992 60.7459 24.012C59.8699 25.02 58.8439 25.818 57.6679 26.406C56.4919 26.982 55.2379 27.27 53.9059 27.27ZM87.0391 17.208L85.2751 8.298C85.2031 7.89 85.1191 7.416 85.0231 6.876C84.9271 6.336 84.8311 5.748 84.7351 5.112C84.4951 5.748 84.2611 6.336 84.0331 6.876C83.8051 7.416 83.6011 7.896 83.4211 8.316L79.4791 17.208H87.0391ZM93.8251 27H90.2071C89.7991 27 89.4811 26.904 89.2531 26.712C89.0371 26.508 88.8811 26.25 88.7851 25.938L87.7051 20.502H78.0031L75.5911 25.938C75.4591 26.214 75.2431 26.46 74.9431 26.676C74.6551 26.892 74.3191 27 73.9351 27H70.2631L82.8451 0.971998H87.6151L93.8251 27ZM95.8912 27L99.1312 0.251999H103.523L100.265 27H95.8912ZM105.981 23.238C105.981 23.154 105.981 23.058 105.981 22.95C105.981 22.83 105.987 22.662 105.999 22.446C106.023 22.218 106.053 21.924 106.089 21.564C106.137 21.192 106.197 20.718 106.269 20.142L107.295 11.862H105.549C105.333 11.862 105.153 11.784 105.009 11.628C104.877 11.472 104.835 11.238 104.883 10.926L105.081 9.162L107.889 8.676L109.365 3.636C109.449 3.396 109.575 3.21 109.743 3.078C109.911 2.946 110.121 2.88 110.373 2.88H112.749L112.029 8.694H116.493L116.115 11.862H111.633L110.643 19.908C110.583 20.4 110.535 20.79 110.499 21.078C110.463 21.366 110.433 21.594 110.409 21.762C110.397 21.918 110.391 22.032 110.391 22.104C110.391 22.164 110.391 22.206 110.391 22.23C110.391 22.686 110.499 23.046 110.715 23.31C110.943 23.574 111.261 23.706 111.669 23.706C111.921 23.706 112.137 23.676 112.317 23.616C112.497 23.544 112.653 23.472 112.785 23.4C112.917 23.328 113.037 23.262 113.145 23.202C113.253 23.13 113.355 23.094 113.451 23.094C113.583 23.094 113.685 23.13 113.757 23.202C113.829 23.262 113.895 23.358 113.955 23.49L114.909 25.65C114.249 26.19 113.517 26.598 112.713 26.874C111.921 27.15 111.111 27.288 110.283 27.288C108.975 27.288 107.937 26.934 107.169 26.226C106.413 25.518 106.017 24.522 105.981 23.238ZM124.808 23.85C125.552 23.85 126.224 23.64 126.824 23.22C127.424 22.788 127.934 22.218 128.354 21.51C128.774 20.79 129.098 19.956 129.326 19.008C129.554 18.06 129.668 17.064 129.668 16.02C129.668 14.52 129.416 13.422 128.912 12.726C128.408 12.018 127.64 11.664 126.608 11.664C125.864 11.664 125.186 11.874 124.574 12.294C123.974 12.714 123.464 13.284 123.044 14.004C122.624 14.712 122.3 15.54 122.072 16.488C121.844 17.436 121.73 18.438 121.73 19.494C121.73 20.994 121.982 22.098 122.486 22.806C122.99 23.502 123.764 23.85 124.808 23.85ZM124.394 27.27C123.374 27.27 122.432 27.102 121.568 26.766C120.704 26.418 119.954 25.914 119.318 25.254C118.682 24.594 118.184 23.784 117.824 22.824C117.464 21.864 117.284 20.766 117.284 19.53C117.284 17.934 117.542 16.446 118.058 15.066C118.574 13.686 119.27 12.492 120.146 11.484C121.034 10.476 122.066 9.684 123.242 9.108C124.418 8.532 125.672 8.244 127.004 8.244C128.024 8.244 128.966 8.418 129.83 8.766C130.706 9.102 131.456 9.6 132.08 10.26C132.716 10.92 133.214 11.73 133.574 12.69C133.934 13.65 134.114 14.748 134.114 15.984C134.114 17.568 133.856 19.05 133.34 20.43C132.824 21.798 132.122 22.992 131.234 24.012C130.358 25.02 129.332 25.818 128.156 26.406C126.98 26.982 125.726 27.27 124.394 27.27Z" fill="#4452A6"/>
</svg>
