<svg width="140" height="140" viewBox="0 0 140 140" fill="none" xmlns="http://www.w3.org/2000/svg">
<path d="M7.38281 0L19.4867 126.191L70.4774 140L120.747 126.191L132.851 0H7.38281Z" fill="#FD982C"/>
<path d="M70.4774 0V140L120.747 126.191L132.851 0H70.4774Z" fill="#FA502E"/>
<path d="M107.781 43.5802L54.2261 43.5791L55.1222 53.3759H107.527L103.292 108.116L70.4326 117.673L35.1634 106.704V84.505H57.0726V91.1166L70.4369 95.246L83.0994 91.1134L84.0211 74.7232H35.5031L30.0258 22.5063H107.781V43.5802Z" fill="white"/>
<path d="M70.4774 22.5063H107.781V43.5802H70.4774V22.5063Z" fill="#DEECF1"/>
<path d="M84.0211 74.7232L83.0994 91.1134L70.4774 95.2332V117.66L103.292 108.116L107.527 53.3759H70.4774V74.7232H84.0211Z" fill="#DEECF1"/>
</svg>
