<?xml version="1.0" encoding="utf-8"?><svg viewBox="0 0 157 33" xmlns="http://www.w3.org/2000/svg" xmlns:xlink="http://www.w3.org/1999/xlink"><style>:root>svg{display:none}:root>svg:target{display:block}</style><svg viewBox="0 0 24 14" fill="none" id="burger_menu" xmlns="http://www.w3.org/2000/svg"><path d="M24 1.5H0V0h24v1.5zm0 12H0V12h24v1.5zm0-6.012H0V6h24v1.488z" fill="#5C6BC0"/></svg><svg viewBox="0 0 23 22" fill="none" id="facebook" xmlns="http://www.w3.org/2000/svg"><path fill-rule="evenodd" clip-rule="evenodd" d="M20.327 21.983H1.697C.76 21.983 0 21.295 0 20.359V1.693C0 .758.76 0 1.697 0h18.63c.937 0 1.697.758 1.697 1.693v18.666c0 .936-.76 1.624-1.697 1.624zM8.863 4.241c-1.006 0-1.442.16-2.099.481a3.073 3.073 0 00-1.377 1.396c-.245.51-.367 1.13-.367 2.164V9.29H3.002v2.673H5.02v8.032h2.984v-8.032h2.718l.608-2.673H8.004v-.951c0-.624.113-1.047.341-1.267.228-.22 1.201-.351 1.725-.351.533 0 .96.247 1.498.561l.642-2.422c-.988-.278-2.316-.619-3.347-.619z" fill="#fff"/></svg><svg viewBox="0 0 135 28" fill="none" id="footer_logo" xmlns="http://www.w3.org/2000/svg"><path d="M9.872 14.148c.924 0 1.722-.138 2.394-.414.672-.276 1.224-.66 1.656-1.152a4.68 4.68 0 00.972-1.782c.216-.684.324-1.44.324-2.268 0-.588-.084-1.128-.252-1.62a3.077 3.077 0 00-.774-1.242 3.533 3.533 0 00-1.314-.81c-.516-.192-1.134-.288-1.854-.288h-3.24l-1.17 9.576h3.258zM11.474.972c1.476 0 2.742.18 3.798.54 1.068.348 1.944.84 2.628 1.476a5.805 5.805 0 011.512 2.268c.336.864.504 1.818.504 2.862 0 1.392-.222 2.682-.666 3.87a8.225 8.225 0 01-1.962 3.06c-.876.852-1.974 1.524-3.294 2.016-1.308.48-2.838.72-4.59.72h-3.24L5.03 27H.386L3.554.972h7.92zm20.174 10.476a6.827 6.827 0 00-.486-.018 5.783 5.783 0 00-3.204.666 7.115 7.115 0 00-2.214 1.854c-.613.768-1.099 1.668-1.459 2.7a9.965 9.965 0 00-.521 3.24c0 1.296.204 2.244.611 2.844.409.6.966.9 1.674.9.492 0 .973-.168 1.44-.504.48-.348.93-.816 1.35-1.404.433-.6.823-1.302 1.17-2.106.36-.804.672-1.668.936-2.592l.703-5.58zm-1.224 11.7c-.816 1.26-1.74 2.262-2.773 3.006-1.02.744-2.136 1.116-3.348 1.116-.695 0-1.35-.138-1.962-.414a4.553 4.553 0 01-1.584-1.224c-.444-.552-.798-1.236-1.062-2.052-.252-.828-.378-1.794-.378-2.898s.139-2.178.415-3.222a12.806 12.806 0 011.17-2.934 12.874 12.874 0 011.854-2.538 11.918 11.918 0 012.412-1.98c.9-.552 1.866-.978 2.898-1.278a11.444 11.444 0 013.294-.468c.828 0 1.656.06 2.483.18.84.12 1.656.336 2.448.648L34.078 27h-2.359c-.564 0-.948-.138-1.152-.414-.192-.288-.288-.642-.288-1.062l.145-2.376zM38.2 27L41.44.252h4.392L42.574 27H38.2zm16.12-3.15c.744 0 1.416-.21 2.016-.63.6-.432 1.11-1.002 1.53-1.71.42-.72.744-1.554.972-2.502.228-.948.342-1.944.342-2.988 0-1.5-.252-2.598-.756-3.294-.504-.708-1.272-1.062-2.304-1.062-.744 0-1.422.21-2.034.63-.6.42-1.11.99-1.53 1.71-.42.708-.744 1.536-.972 2.484-.228.948-.342 1.95-.342 3.006 0 1.5.252 2.604.756 3.312.504.696 1.278 1.044 2.322 1.044zm-.414 3.42c-1.02 0-1.962-.168-2.826-.504a6.416 6.416 0 01-2.25-1.512c-.636-.66-1.134-1.47-1.494-2.43-.36-.96-.54-2.058-.54-3.294 0-1.596.258-3.084.774-4.464.516-1.38 1.212-2.574 2.088-3.582a9.897 9.897 0 013.096-2.376 8.44 8.44 0 013.762-.864c1.02 0 1.962.174 2.826.522a6.017 6.017 0 012.25 1.494c.636.66 1.134 1.47 1.494 2.43.36.96.54 2.058.54 3.294 0 1.584-.258 3.066-.774 4.446-.516 1.368-1.218 2.562-2.106 3.582a9.925 9.925 0 01-3.078 2.394 8.44 8.44 0 01-3.762.864zm33.133-10.062l-1.764-8.91-.252-1.422a68.735 68.735 0 01-.288-1.764c-.24.636-.474 1.224-.702 1.764-.228.54-.432 1.02-.612 1.44l-3.942 8.892h7.56zM93.825 27h-3.618c-.408 0-.726-.096-.954-.288a1.748 1.748 0 01-.468-.774l-1.08-5.436h-9.702l-2.412 5.436c-.132.276-.348.522-.648.738a1.634 1.634 0 01-1.008.324h-3.672L82.845.972h4.77L93.825 27zm2.066 0L99.131.252h4.392L100.265 27h-4.374zm10.09-3.762v-.288c0-.12.006-.288.018-.504l.09-.882.18-1.422 1.026-8.28h-1.746a.704.704 0 01-.54-.234c-.132-.156-.174-.39-.126-.702l.198-1.764 2.808-.486 1.476-5.04c.084-.24.21-.426.378-.558a.988.988 0 01.63-.198h2.376l-.72 5.814h4.464l-.378 3.168h-4.482l-.99 8.046-.144 1.17c-.036.288-.066.516-.09.684a4.99 4.99 0 00-.018.342v.126c0 .456.108.816.324 1.08.228.264.546.396.954.396.252 0 .468-.03.648-.09.18-.072.336-.144.468-.216l.36-.198a.558.558 0 01.306-.108c.132 0 .234.036.306.108.072.06.138.156.198.288l.954 2.16c-.66.54-1.392.948-2.196 1.224a7.335 7.335 0 01-2.43.414c-1.308 0-2.346-.354-3.114-1.062-.756-.708-1.152-1.704-1.188-2.988zm18.827.612c.744 0 1.416-.21 2.016-.63.6-.432 1.11-1.002 1.53-1.71.42-.72.744-1.554.972-2.502.228-.948.342-1.944.342-2.988 0-1.5-.252-2.598-.756-3.294-.504-.708-1.272-1.062-2.304-1.062-.744 0-1.422.21-2.034.63-.6.42-1.11.99-1.53 1.71-.42.708-.744 1.536-.972 2.484-.228.948-.342 1.95-.342 3.006 0 1.5.252 2.604.756 3.312.504.696 1.278 1.044 2.322 1.044zm-.414 3.42c-1.02 0-1.962-.168-2.826-.504a6.416 6.416 0 01-2.25-1.512c-.636-.66-1.134-1.47-1.494-2.43-.36-.96-.54-2.058-.54-3.294 0-1.596.258-3.084.774-4.464.516-1.38 1.212-2.574 2.088-3.582a9.897 9.897 0 013.096-2.376 8.44 8.44 0 013.762-.864c1.02 0 1.962.174 2.826.522a6.017 6.017 0 012.25 1.494c.636.66 1.134 1.47 1.494 2.43.36.96.54 2.058.54 3.294 0 1.584-.258 3.066-.774 4.446-.516 1.368-1.218 2.562-2.106 3.582a9.925 9.925 0 01-3.078 2.394 8.44 8.44 0 01-3.762.864z" fill="#4452A6"/></svg><svg viewBox="0 0 157 33" fill="none" id="header_logo1440" xmlns="http://www.w3.org/2000/svg"><path d="M11.684 17.006c1.078 0 2.009-.161 2.793-.483.784-.322 1.428-.77 1.932-1.344a5.46 5.46 0 001.134-2.079c.252-.798.378-1.68.378-2.646 0-.686-.098-1.316-.294-1.89a3.59 3.59 0 00-.903-1.449c-.406-.406-.917-.721-1.533-.945-.602-.224-1.323-.336-2.163-.336h-3.78L7.883 17.006h3.801zm1.869-15.372c1.722 0 3.199.21 4.431.63 1.246.406 2.268.98 3.066 1.722a6.773 6.773 0 011.764 2.646c.392 1.008.588 2.121.588 3.339 0 1.624-.259 3.129-.777 4.515a9.596 9.596 0 01-2.289 3.57c-1.022.994-2.303 1.778-3.843 2.352-1.526.56-3.311.84-5.355.84h-3.78L6.035 32H.617L4.313 1.634h9.24zm23.536 12.222a7.965 7.965 0 00-.567-.021 6.747 6.747 0 00-3.738.777 8.3 8.3 0 00-2.583 2.163c-.714.896-1.281 1.946-1.701 3.15a11.626 11.626 0 00-.61 3.78c0 1.512.239 2.618.715 3.318.476.7 1.127 1.05 1.953 1.05.574 0 1.134-.196 1.68-.588.56-.406 1.085-.952 1.575-1.638.504-.7.959-1.519 1.365-2.457.42-.938.784-1.946 1.092-3.024l.819-6.51zm-1.428 13.65c-.952 1.47-2.03 2.639-3.234 3.507-1.19.868-2.492 1.302-3.906 1.302a5.503 5.503 0 01-2.29-.483 5.311 5.311 0 01-1.847-1.428c-.518-.644-.931-1.442-1.24-2.394-.293-.966-.44-2.093-.44-3.381 0-1.288.16-2.541.483-3.759a14.94 14.94 0 011.365-3.423 15.02 15.02 0 012.163-2.961 13.904 13.904 0 012.814-2.31 13.806 13.806 0 013.38-1.491 13.351 13.351 0 013.844-.546c.966 0 1.932.07 2.898.21.98.14 1.932.392 2.856.756L39.924 32h-2.751c-.658 0-1.106-.161-1.344-.483-.224-.336-.336-.749-.336-1.239l.168-2.772zM44.733 32L48.513.794h5.124L49.837 32h-5.104zm18.807-3.675c.868 0 1.652-.245 2.352-.735.7-.504 1.295-1.169 1.785-1.995.49-.84.868-1.813 1.134-2.919.266-1.106.399-2.268.399-3.486 0-1.75-.294-3.031-.882-3.843-.588-.826-1.484-1.239-2.688-1.239-.868 0-1.66.245-2.373.735-.7.49-1.295 1.155-1.785 1.995-.49.826-.868 1.792-1.134 2.898a14.955 14.955 0 00-.4 3.507c0 1.75.295 3.038.883 3.864.588.812 1.49 1.218 2.709 1.218zm-.483 3.99c-1.19 0-2.29-.196-3.297-.588a7.485 7.485 0 01-2.625-1.764c-.742-.77-1.323-1.715-1.743-2.835-.42-1.12-.63-2.401-.63-3.843 0-1.862.3-3.598.903-5.208.602-1.61 1.414-3.003 2.436-4.179a11.546 11.546 0 013.612-2.772 9.847 9.847 0 014.389-1.008c1.19 0 2.289.203 3.297.609a7.02 7.02 0 012.625 1.743c.742.77 1.323 1.715 1.743 2.835.42 1.12.63 2.401.63 3.843 0 1.848-.301 3.577-.903 5.187-.602 1.596-1.421 2.989-2.457 4.179a11.579 11.579 0 01-3.591 2.793 9.847 9.847 0 01-4.39 1.008zm38.655-11.739l-2.058-10.395-.294-1.659a80.191 80.191 0 01-.336-2.058 57.5 57.5 0 01-.819 2.058c-.266.63-.504 1.19-.714 1.68l-4.599 10.374h8.82zM109.629 32h-4.221c-.476 0-.847-.112-1.113-.336a2.04 2.04 0 01-.546-.903l-1.26-6.342H91.17l-2.814 6.342c-.154.322-.406.609-.756.861a1.906 1.906 0 01-1.176.378H82.14L96.82 1.634h5.564L109.629 32zm2.411 0L115.82.794h5.124L117.143 32h-5.103zm11.772-4.389v-.336c0-.14.007-.336.021-.588l.105-1.029c.056-.434.126-.987.21-1.659l1.197-9.66h-2.037a.822.822 0 01-.63-.273c-.154-.182-.203-.455-.147-.819l.231-2.058 3.276-.567 1.722-5.88c.098-.28.245-.497.441-.651.196-.154.441-.231.735-.231h2.772l-.84 6.783h5.208l-.441 3.696h-5.229l-1.155 9.387-.168 1.365a48.42 48.42 0 01-.105.798 5.822 5.822 0 00-.021.399v.147c0 .532.126.952.378 1.26.266.308.637.462 1.113.462.294 0 .546-.035.756-.105a5.12 5.12 0 00.546-.252l.42-.231a.65.65 0 01.357-.126c.154 0 .273.042.357.126.084.07.161.182.231.336l1.113 2.52a8.24 8.24 0 01-2.562 1.428 8.557 8.557 0 01-2.835.483c-1.526 0-2.737-.413-3.633-1.239-.882-.826-1.344-1.988-1.386-3.486zm21.964.714c.868 0 1.652-.245 2.352-.735.7-.504 1.295-1.169 1.785-1.995.49-.84.868-1.813 1.134-2.919.266-1.106.399-2.268.399-3.486 0-1.75-.294-3.031-.882-3.843-.588-.826-1.484-1.239-2.688-1.239-.868 0-1.659.245-2.373.735-.7.49-1.295 1.155-1.785 1.995-.49.826-.868 1.792-1.134 2.898a14.955 14.955 0 00-.399 3.507c0 1.75.294 3.038.882 3.864.588.812 1.491 1.218 2.709 1.218zm-.483 3.99c-1.19 0-2.289-.196-3.297-.588a7.485 7.485 0 01-2.625-1.764c-.742-.77-1.323-1.715-1.743-2.835-.42-1.12-.63-2.401-.63-3.843 0-1.862.301-3.598.903-5.208.602-1.61 1.414-3.003 2.436-4.179a11.546 11.546 0 013.612-2.772 9.847 9.847 0 014.389-1.008c1.19 0 2.289.203 3.297.609a7.02 7.02 0 012.625 1.743c.742.77 1.323 1.715 1.743 2.835.42 1.12.63 2.401.63 3.843 0 1.848-.301 3.577-.903 5.187-.602 1.596-1.421 2.989-2.457 4.179a11.579 11.579 0 01-3.591 2.793 9.847 9.847 0 01-4.389 1.008z" fill="#333"/></svg><svg viewBox="0 0 112 24" fill="none" id="header_logo320" xmlns="http://www.w3.org/2000/svg"><path d="M8.06 12.29c.77 0 1.435-.115 1.995-.345.56-.23 1.02-.55 1.38-.96a3.9 3.9 0 00.81-1.485c.18-.57.27-1.2.27-1.89 0-.49-.07-.94-.21-1.35a2.564 2.564 0 00-.645-1.035 2.945 2.945 0 00-1.095-.675c-.43-.16-.945-.24-1.545-.24h-2.7l-.975 7.98H8.06zM9.395 1.31c1.23 0 2.285.15 3.165.45.89.29 1.62.7 2.19 1.23.57.53.99 1.16 1.26 1.89.28.72.42 1.515.42 2.385 0 1.16-.185 2.235-.555 3.225-.36.98-.905 1.83-1.635 2.55-.73.71-1.645 1.27-2.745 1.68-1.09.4-2.365.6-3.825.6h-2.7L4.025 23H.155l2.64-21.69h6.6zm16.811 8.73a5.69 5.69 0 00-.405-.015 4.82 4.82 0 00-2.67.555c-.71.38-1.325.895-1.845 1.545-.51.64-.915 1.39-1.215 2.25-.29.85-.435 1.75-.435 2.7 0 1.08.17 1.87.51 2.37.34.5.805.75 1.395.75.41 0 .81-.14 1.2-.42.4-.29.775-.68 1.125-1.17.36-.5.685-1.085.975-1.755.3-.67.56-1.39.78-2.16l.585-4.65zm-1.02 9.75c-.68 1.05-1.45 1.885-2.31 2.505-.85.62-1.78.93-2.79.93a3.93 3.93 0 01-1.635-.345c-.5-.23-.94-.57-1.32-1.02-.37-.46-.665-1.03-.885-1.71-.21-.69-.315-1.495-.315-2.415a10.672 10.672 0 011.32-5.13c.43-.77.945-1.475 1.545-2.115.6-.64 1.27-1.19 2.01-1.65a9.862 9.862 0 012.415-1.065c.87-.26 1.785-.39 2.745-.39.69 0 1.38.05 2.07.15.7.1 1.38.28 2.04.54L28.231 23h-1.965c-.47 0-.79-.115-.96-.345-.16-.24-.24-.535-.24-.885l.12-1.98zm6.48 3.21l2.7-22.29h3.66L35.311 23h-3.645zM45.1 20.375c.62 0 1.18-.175 1.68-.525.5-.36.925-.835 1.275-1.425.35-.6.62-1.295.81-2.085.19-.79.285-1.62.285-2.49 0-1.25-.21-2.165-.63-2.745-.42-.59-1.06-.885-1.92-.885a2.93 2.93 0 00-1.695.525c-.5.35-.925.825-1.275 1.425-.35.59-.62 1.28-.81 2.07-.19.79-.285 1.625-.285 2.505 0 1.25.21 2.17.63 2.76.42.58 1.065.87 1.935.87zm-.345 2.85c-.85 0-1.635-.14-2.355-.42a5.347 5.347 0 01-1.875-1.26c-.53-.55-.945-1.225-1.245-2.025-.3-.8-.45-1.715-.45-2.745 0-1.33.215-2.57.645-3.72.43-1.15 1.01-2.145 1.74-2.985.74-.84 1.6-1.5 2.58-1.98s2.025-.72 3.135-.72c.85 0 1.635.145 2.355.435.73.28 1.355.695 1.875 1.245.53.55.945 1.225 1.245 2.025.3.8.45 1.715.45 2.745 0 1.32-.215 2.555-.645 3.705-.43 1.14-1.015 2.135-1.755 2.985a8.27 8.27 0 01-2.565 1.995c-.98.48-2.025.72-3.135.72zm27.61-8.385l-1.47-7.425-.21-1.185c-.08-.45-.16-.94-.24-1.47-.2.53-.394 1.02-.584 1.47-.19.45-.36.85-.51 1.2l-3.285 7.41h6.3zM78.022 23h-3.015c-.34 0-.605-.08-.795-.24-.18-.17-.31-.385-.39-.645l-.9-4.53h-8.085l-2.01 4.53c-.11.23-.29.435-.54.615-.24.18-.52.27-.84.27h-3.06L68.87 1.31h3.975L78.02 23zm1.722 0l2.7-22.29h3.66L83.388 23h-3.645zm8.408-3.135v-.24c0-.1.005-.24.015-.42l.075-.735.15-1.185.855-6.9h-1.455a.587.587 0 01-.45-.195c-.11-.13-.145-.325-.105-.585l.165-1.47 2.34-.405 1.23-4.2c.07-.2.175-.355.315-.465a.824.824 0 01.525-.165h1.98l-.6 4.845h3.72l-.315 2.64h-3.735l-.825 6.705-.12.975c-.03.24-.055.43-.075.57-.01.13-.015.225-.015.285v.105c0 .38.09.68.27.9.19.22.455.33.795.33.21 0 .39-.025.54-.075.15-.06.28-.12.39-.18l.3-.165c.09-.06.175-.09.255-.09.11 0 .195.03.255.09.06.05.115.13.165.24l.795 1.8c-.55.45-1.16.79-1.83 1.02-.66.23-1.335.345-2.025.345-1.09 0-1.955-.295-2.595-.885-.63-.59-.96-1.42-.99-2.49zm15.689.51c.62 0 1.18-.175 1.68-.525.5-.36.925-.835 1.275-1.425.35-.6.62-1.295.81-2.085.19-.79.285-1.62.285-2.49 0-1.25-.21-2.165-.63-2.745-.42-.59-1.06-.885-1.92-.885a2.93 2.93 0 00-1.695.525c-.5.35-.925.825-1.275 1.425-.35.59-.62 1.28-.81 2.07-.19.79-.285 1.625-.285 2.505 0 1.25.21 2.17.63 2.76.42.58 1.065.87 1.935.87zm-.345 2.85c-.85 0-1.635-.14-2.355-.42a5.346 5.346 0 01-1.875-1.26c-.53-.55-.945-1.225-1.245-2.025-.3-.8-.45-1.715-.45-2.745 0-1.33.215-2.57.645-3.72.43-1.15 1.01-2.145 1.74-2.985.74-.84 1.6-1.5 2.58-1.98s2.025-.72 3.135-.72c.85 0 1.635.145 2.355.435.73.28 1.355.695 1.875 1.245.53.55.945 1.225 1.245 2.025.3.8.45 1.715.45 2.745 0 1.32-.215 2.555-.645 3.705-.43 1.14-1.015 2.135-1.755 2.985a8.27 8.27 0 01-2.565 1.995c-.98.48-2.025.72-3.135.72z" fill="#333"/></svg><svg viewBox="0 0 120 25" fill="none" id="header_logo480" xmlns="http://www.w3.org/2000/svg"><path d="M8.664 12.576c.821 0 1.53-.123 2.128-.368a3.885 3.885 0 001.472-1.024 4.16 4.16 0 00.864-1.584 6.67 6.67 0 00.288-2.016c0-.523-.075-1.003-.224-1.44a2.735 2.735 0 00-.688-1.104 3.14 3.14 0 00-1.168-.72c-.459-.17-1.008-.256-1.648-.256h-2.88l-1.04 8.512h2.896zM10.088.864c1.312 0 2.437.16 3.376.48.95.31 1.728.747 2.336 1.312a5.16 5.16 0 011.344 2.016c.299.768.448 1.616.448 2.544 0 1.237-.197 2.384-.592 3.44a7.311 7.311 0 01-1.744 2.72c-.779.757-1.755 1.355-2.928 1.792-1.163.427-2.523.64-4.08.64h-2.88L4.36 24H.232L3.048.864h7.04zm17.932 9.312a6.047 6.047 0 00-.432-.016 5.14 5.14 0 00-2.848.592 6.325 6.325 0 00-1.968 1.648c-.544.683-.976 1.483-1.296 2.4a8.86 8.86 0 00-.464 2.88c0 1.152.181 1.995.544 2.528.363.533.859.8 1.488.8.437 0 .864-.15 1.28-.448.427-.31.827-.725 1.2-1.248a9.976 9.976 0 001.04-1.872c.32-.715.597-1.483.832-2.304l.624-4.96zm-1.088 10.4c-.725 1.12-1.547 2.01-2.464 2.672-.907.661-1.899.992-2.976.992-.619 0-1.2-.123-1.744-.368a4.046 4.046 0 01-1.408-1.088c-.395-.49-.71-1.099-.944-1.824-.224-.736-.336-1.595-.336-2.576a11.382 11.382 0 011.408-5.472 11.446 11.446 0 011.648-2.256c.64-.683 1.355-1.27 2.144-1.76.8-.49 1.659-.87 2.576-1.136a10.172 10.172 0 012.928-.416c.736 0 1.472.053 2.208.16a9.634 9.634 0 012.176.576L30.18 24h-2.096c-.501 0-.843-.123-1.024-.368-.17-.256-.256-.57-.256-.944l.128-2.112zM33.844 24L36.724.224h3.904L37.732 24h-3.888zm14.33-2.8c.66 0 1.258-.187 1.791-.56.534-.384.987-.89 1.36-1.52.374-.64.662-1.381.864-2.224.203-.843.304-1.728.304-2.656 0-1.333-.224-2.31-.672-2.928-.448-.63-1.13-.944-2.048-.944-.661 0-1.264.187-1.808.56-.533.373-.986.88-1.36 1.52-.373.63-.661 1.365-.864 2.208a11.393 11.393 0 00-.304 2.672c0 1.333.224 2.315.672 2.944.448.619 1.136.928 2.064.928zm-.369 3.04c-.906 0-1.744-.15-2.512-.448a5.702 5.702 0 01-2-1.344c-.565-.587-1.008-1.307-1.328-2.16-.32-.853-.48-1.83-.48-2.928 0-1.419.23-2.741.688-3.968.459-1.227 1.078-2.288 1.856-3.184a8.796 8.796 0 012.752-2.112 7.502 7.502 0 013.344-.768c.907 0 1.744.155 2.512.464a5.35 5.35 0 012 1.328c.566.587 1.008 1.307 1.328 2.16.32.853.48 1.83.48 2.928 0 1.408-.23 2.725-.688 3.952-.458 1.216-1.082 2.277-1.872 3.184a8.823 8.823 0 01-2.736 2.128 7.503 7.503 0 01-3.344.768zm29.452-8.944l-1.568-7.92-.224-1.264a61.1 61.1 0 01-.256-1.568 43.687 43.687 0 01-.624 1.568c-.203.48-.384.907-.544 1.28l-3.504 7.904h6.72zM83.289 24h-3.216c-.363 0-.645-.085-.848-.256a1.554 1.554 0 01-.416-.688l-.96-4.832h-8.624l-2.144 4.832c-.117.245-.31.464-.576.656a1.452 1.452 0 01-.896.288h-3.264L73.529.864h4.24L83.289 24zm1.837 0L88.005.224h3.903L89.013 24h-3.888zm8.968-3.344V20.4c0-.107.006-.256.017-.448l.08-.784.16-1.264.912-7.36H93.71a.626.626 0 01-.48-.208c-.117-.139-.154-.347-.112-.624l.177-1.568 2.495-.432 1.313-4.48c.074-.213.186-.379.336-.496a.879.879 0 01.56-.176h2.112l-.64 5.168h3.968l-.336 2.816h-3.984l-.88 7.152-.129 1.04a37.21 37.21 0 01-.08.608c-.01.139-.016.24-.016.304v.112c0 .405.097.725.288.96.203.235.486.352.848.352.224 0 .416-.027.576-.08a3.86 3.86 0 00.416-.192l.321-.176a.494.494 0 01.272-.096c.117 0 .208.032.272.096a.722.722 0 01.176.256l.848 1.92a6.289 6.289 0 01-1.952 1.088 6.525 6.525 0 01-2.16.368c-1.163 0-2.086-.315-2.769-.944-.672-.63-1.024-1.515-1.056-2.656zm16.736.544c.661 0 1.258-.187 1.792-.56.533-.384.986-.89 1.36-1.52.373-.64.661-1.381.864-2.224a11.36 11.36 0 00.304-2.656c0-1.333-.224-2.31-.672-2.928-.448-.63-1.131-.944-2.048-.944-.662 0-1.264.187-1.808.56-.534.373-.987.88-1.36 1.52-.374.63-.662 1.365-.864 2.208a11.377 11.377 0 00-.304 2.672c0 1.333.224 2.315.672 2.944.448.619 1.136.928 2.064.928zm-.368 3.04a6.87 6.87 0 01-2.512-.448 5.7 5.7 0 01-2-1.344c-.566-.587-1.008-1.307-1.328-2.16-.32-.853-.48-1.83-.48-2.928 0-1.419.229-2.741.688-3.968.458-1.227 1.077-2.288 1.856-3.184a8.786 8.786 0 012.752-2.112 7.501 7.501 0 013.344-.768c.906 0 1.744.155 2.512.464a5.356 5.356 0 012 1.328c.565.587 1.008 1.307 1.328 2.16.32.853.48 1.83.48 2.928 0 1.408-.23 2.725-.688 3.952-.459 1.216-1.083 2.277-1.872 3.184a8.83 8.83 0 01-2.736 2.128 7.505 7.505 0 01-3.344.768z" fill="#333"/></svg><svg viewBox="0 0 22 22" fill="none" id="instagram" xmlns="http://www.w3.org/2000/svg"><path fill-rule="evenodd" clip-rule="evenodd" d="M19.271 21.98H2.707A2.708 2.708 0 010 19.272V2.708A2.708 2.708 0 012.707 0h16.564a2.708 2.708 0 012.707 2.708v16.564a2.708 2.708 0 01-2.707 2.708zM10.989 6.985a4.003 4.003 0 00-3.632 2.326h-.003c-.007.014-.011.03-.018.044a3.911 3.911 0 00-.104.26c-.015.041-.032.083-.046.125-.029.089-.053.182-.077.274-.01.043-.023.085-.033.13a3.605 3.605 0 00-.049.297c-.006.04-.014.079-.019.121a4.003 4.003 0 003.981 4.432 4.003 4.003 0 003.981-4.432c-.005-.042-.013-.081-.019-.121-.013-.1-.028-.2-.049-.297-.01-.045-.023-.087-.033-.13-.024-.092-.048-.185-.077-.274-.014-.042-.031-.084-.046-.125a3.911 3.911 0 00-.104-.26c-.007-.014-.011-.03-.018-.044h-.003a4.003 4.003 0 00-3.632-2.326zm8.009-2.916c0-.599-.485-1.084-1.083-1.084h-.873c-.598 0-1.083.485-1.083 1.084v.837c0 .598.485 1.083 1.083 1.083h.873c.598 0 1.083-.485 1.083-1.083v-.837zm.969 4.932h-3.268c.154.561.342 1.432.342 2.042 0 3.664-3.078 5.994-6.052 5.994-3.044 0-6.047-2.33-6.047-5.994 0-.61.215-1.481.369-2.042L2.016 8.97v9.915c0 .598.485 1.083 1.083 1.083h15.785c.598 0 1.083-.485 1.083-1.083V9.001z" fill="#fff"/></svg><svg viewBox="0 0 22 22" fill="none" id="pinterest" xmlns="http://www.w3.org/2000/svg"><path fill-rule="evenodd" clip-rule="evenodd" d="M10.989 0C4.92 0 0 4.92 0 10.989c0 4.523 2.734 8.408 6.638 10.095-.028-.766-.001-1.68.193-2.508.213-.894 1.421-6.01 1.421-6.01s-.353-.704-.353-1.745c0-1.633.948-2.855 2.127-2.855 1.003 0 1.488.755 1.488 1.657 0 1.008-.643 2.516-.975 3.913-.275 1.17.589 2.125 1.743 2.125 2.088 0 3.494-2.684 3.494-5.865 0-2.416-1.626-4.226-4.588-4.226-3.344 0-5.431 2.495-5.431 5.282 0 .961.285 1.64.729 2.163.204.241.232.338.157.616-.053.202-.172.69-.223.885-.073.279-.301.377-.553.275-1.54-.628-2.259-2.316-2.259-4.213 0-3.133 2.643-6.89 7.883-6.89 4.212 0 6.983 3.048 6.983 6.317 0 4.329-2.406 7.56-5.951 7.56-1.191 0-2.312-.644-2.694-1.373 0 0-.642 2.538-.776 3.03-.232.838-.678 1.675-1.091 2.334.96.275 1.976.422 3.027.422 6.069 0 10.989-4.92 10.989-10.989C21.978 4.92 17.058 0 10.989 0z" fill="#fff"/></svg><svg viewBox="0 0 16 16" fill="none" id="search_black" xmlns="http://www.w3.org/2000/svg"><path fill-rule="evenodd" clip-rule="evenodd" d="M15.533 15.533a1.5 1.5 0 01-2.121 0l-2.648-2.648A6.946 6.946 0 017 14a7 7 0 117-7 6.956 6.956 0 01-1.114 3.764l2.647 2.648a1.5 1.5 0 010 2.121zM7 2a5 5 0 10.001 10.001A5 5 0 007 2z" fill="#333"/></svg><svg viewBox="0 0 16 16" fill="none" id="search_violet" xmlns="http://www.w3.org/2000/svg"><path fill-rule="evenodd" clip-rule="evenodd" d="M15.533 15.533a1.5 1.5 0 01-2.121 0l-2.648-2.648A6.946 6.946 0 017 14a7 7 0 117-7 6.956 6.956 0 01-1.114 3.764l2.647 2.648a1.5 1.5 0 010 2.121zM7 2a5 5 0 10.001 10.001A5 5 0 007 2z" fill="#5C6BC0"/></svg><svg viewBox="0 0 16 16" fill="none" id="search_white" xmlns="http://www.w3.org/2000/svg"><path fill-rule="evenodd" clip-rule="evenodd" d="M15.533 15.533a1.5 1.5 0 01-2.121 0l-2.648-2.648A6.946 6.946 0 017 14a7 7 0 117-7 6.956 6.956 0 01-1.114 3.764l2.647 2.648a1.5 1.5 0 010 2.121zM7 2a5 5 0 10.001 10.001A5 5 0 007 2z" fill="#fff"/></svg><svg viewBox="0 0 24 20" fill="none" id="twitter" xmlns="http://www.w3.org/2000/svg"><path fill-rule="evenodd" clip-rule="evenodd" d="M16.308.001c1.906-.034 2.92.68 3.888 1.586.822-.072 1.891-.544 2.52-.873l.612-.344c-.359.998-.847 1.78-1.596 2.373-.166.132-.331.31-.54.393v.012c1.068-.01 1.948-.505 2.784-.774v.013c-.439.717-1.033 1.445-1.668 1.966l-.768.627c.014 1.162-.016 2.27-.228 3.246-1.228 5.674-4.483 9.525-9.636 11.176-1.85.592-4.84.835-6.96.294-1.051-.268-2.001-.57-2.892-.97a11.266 11.266 0 01-1.392-.739L0 17.717c.478.014 1.037.15 1.572.061.483-.08.958-.059 1.404-.16 1.113-.25 2.101-.582 2.952-1.093.412-.249 1.039-.54 1.332-.898-.553.01-1.054-.12-1.464-.27-1.591-.578-2.518-1.639-3.12-3.234.482.054 1.871.184 2.196-.099-.607-.034-1.191-.395-1.608-.663C1.984 10.538.94 9.158.948 7.034l.504.245c.321.14.648.214 1.032.295.162.034.486.132.672.062h-.024c-.248-.297-.651-.494-.9-.812C1.411 5.776.641 4.161 1.128 2.24c.123-.488.319-.919.528-1.316l.024.013c.095.206.309.357.444.528.419.534.937 1.015 1.464 1.438C5.384 4.346 7.002 5.233 9.6 5.89a9.137 9.137 0 002.208.295c-.221-.662-.15-1.732.024-2.373.438-1.61 1.389-2.77 2.784-3.393a5.81 5.81 0 011.092-.344l.6-.074z" fill="#fff"/></svg></svg>