<svg width="112" height="24" viewBox="0 0 112 24" fill="none" xmlns="http://www.w3.org/2000/svg">
<path d="M8.06 12.29C8.83 12.29 9.495 12.175 10.055 11.945C10.615 11.715 11.075 11.395 11.435 10.985C11.805 10.565 12.075 10.07 12.245 9.5C12.425 8.93 12.515 8.3 12.515 7.61C12.515 7.12 12.445 6.67 12.305 6.26C12.165 5.85 11.95 5.505 11.66 5.225C11.37 4.935 11.005 4.71 10.565 4.55C10.135 4.39 9.62 4.31 9.02 4.31H6.32L5.345 12.29H8.06ZM9.395 1.31C10.625 1.31 11.68 1.46 12.56 1.76C13.45 2.05 14.18 2.46 14.75 2.99C15.32 3.52 15.74 4.15 16.01 4.88C16.29 5.6 16.43 6.395 16.43 7.265C16.43 8.425 16.245 9.5 15.875 10.49C15.515 11.47 14.97 12.32 14.24 13.04C13.51 13.75 12.595 14.31 11.495 14.72C10.405 15.12 9.13 15.32 7.67 15.32H4.97L4.025 23H0.155L2.795 1.31H9.395ZM26.2063 10.04C26.0663 10.03 25.9313 10.025 25.8013 10.025C25.6813 10.015 25.5613 10.01 25.4413 10.01C24.6113 10.01 23.8413 10.2 23.1313 10.58C22.4213 10.96 21.8063 11.475 21.2863 12.125C20.7763 12.765 20.3713 13.515 20.0713 14.375C19.7813 15.225 19.6363 16.125 19.6363 17.075C19.6363 18.155 19.8063 18.945 20.1463 19.445C20.4863 19.945 20.9513 20.195 21.5413 20.195C21.9513 20.195 22.3513 20.055 22.7413 19.775C23.1413 19.485 23.5163 19.095 23.8663 18.605C24.2263 18.105 24.5513 17.52 24.8413 16.85C25.1413 16.18 25.4013 15.46 25.6213 14.69L26.2063 10.04ZM25.1863 19.79C24.5063 20.84 23.7363 21.675 22.8763 22.295C22.0263 22.915 21.0963 23.225 20.0863 23.225C19.5063 23.225 18.9613 23.11 18.4513 22.88C17.9513 22.65 17.5113 22.31 17.1313 21.86C16.7613 21.4 16.4663 20.83 16.2463 20.15C16.0363 19.46 15.9313 18.655 15.9313 17.735C15.9313 16.815 16.0463 15.92 16.2763 15.05C16.5063 14.18 16.8313 13.365 17.2513 12.605C17.6813 11.835 18.1963 11.13 18.7963 10.49C19.3963 9.85 20.0663 9.3 20.8063 8.84C21.5563 8.38 22.3613 8.025 23.2213 7.775C24.0913 7.515 25.0063 7.385 25.9663 7.385C26.6563 7.385 27.3463 7.435 28.0363 7.535C28.7363 7.635 29.4163 7.815 30.0763 8.075L28.2313 23H26.2663C25.7963 23 25.4763 22.885 25.3063 22.655C25.1463 22.415 25.0663 22.12 25.0663 21.77L25.1863 19.79ZM31.6665 23L34.3665 0.709999H38.0265L35.3115 23H31.6665ZM45.0999 20.375C45.7199 20.375 46.2799 20.2 46.7799 19.85C47.2799 19.49 47.7049 19.015 48.0549 18.425C48.4049 17.825 48.6749 17.13 48.8649 16.34C49.0549 15.55 49.1499 14.72 49.1499 13.85C49.1499 12.6 48.9399 11.685 48.5199 11.105C48.0999 10.515 47.4599 10.22 46.5999 10.22C45.9799 10.22 45.4149 10.395 44.9049 10.745C44.4049 11.095 43.9799 11.57 43.6299 12.17C43.2799 12.76 43.0099 13.45 42.8199 14.24C42.6299 15.03 42.5349 15.865 42.5349 16.745C42.5349 17.995 42.7449 18.915 43.1649 19.505C43.5849 20.085 44.2299 20.375 45.0999 20.375ZM44.7549 23.225C43.9049 23.225 43.1199 23.085 42.3999 22.805C41.6799 22.515 41.0549 22.095 40.5249 21.545C39.9949 20.995 39.5799 20.32 39.2799 19.52C38.9799 18.72 38.8299 17.805 38.8299 16.775C38.8299 15.445 39.0449 14.205 39.4749 13.055C39.9049 11.905 40.4849 10.91 41.2149 10.07C41.9549 9.23 42.8149 8.57 43.7949 8.09C44.7749 7.61 45.8199 7.37 46.9299 7.37C47.7799 7.37 48.5649 7.515 49.2849 7.805C50.0149 8.085 50.6399 8.5 51.1599 9.05C51.6899 9.6 52.1049 10.275 52.4049 11.075C52.7049 11.875 52.8549 12.79 52.8549 13.82C52.8549 15.14 52.6399 16.375 52.2099 17.525C51.7799 18.665 51.1949 19.66 50.4549 20.51C49.7249 21.35 48.8699 22.015 47.8899 22.505C46.9099 22.985 45.8649 23.225 44.7549 23.225ZM72.3659 14.84L70.8959 7.415C70.8359 7.075 70.7659 6.68 70.6859 6.23C70.6059 5.78 70.5259 5.29 70.4459 4.76C70.2459 5.29 70.0509 5.78 69.8609 6.23C69.6709 6.68 69.5009 7.08 69.3509 7.43L66.0659 14.84H72.3659ZM78.0209 23H75.0059C74.6659 23 74.4009 22.92 74.2109 22.76C74.0309 22.59 73.9009 22.375 73.8209 22.115L72.9209 17.585H64.8359L62.8259 22.115C62.7159 22.345 62.5359 22.55 62.2859 22.73C62.0459 22.91 61.7659 23 61.4459 23H58.3859L68.8709 1.31H72.8459L78.0209 23ZM79.7427 23L82.4427 0.709999H86.1027L83.3877 23H79.7427ZM88.1511 19.865C88.1511 19.795 88.1511 19.715 88.1511 19.625C88.1511 19.525 88.1561 19.385 88.1661 19.205C88.1861 19.015 88.2111 18.77 88.2411 18.47C88.2811 18.16 88.3311 17.765 88.3911 17.285L89.2461 10.385H87.7911C87.6111 10.385 87.4611 10.32 87.3411 10.19C87.2311 10.06 87.1961 9.865 87.2361 9.605L87.4011 8.135L89.7411 7.73L90.9711 3.53C91.0411 3.33 91.1461 3.175 91.2861 3.065C91.4261 2.955 91.6011 2.9 91.8111 2.9H93.7911L93.1911 7.745H96.9111L96.5961 10.385H92.8611L92.0361 17.09C91.9861 17.5 91.9461 17.825 91.9161 18.065C91.8861 18.305 91.8611 18.495 91.8411 18.635C91.8311 18.765 91.8261 18.86 91.8261 18.92C91.8261 18.97 91.8261 19.005 91.8261 19.025C91.8261 19.405 91.9161 19.705 92.0961 19.925C92.2861 20.145 92.5511 20.255 92.8911 20.255C93.1011 20.255 93.2811 20.23 93.4311 20.18C93.5811 20.12 93.7111 20.06 93.8211 20C93.9311 19.94 94.0311 19.885 94.1211 19.835C94.2111 19.775 94.2961 19.745 94.3761 19.745C94.4861 19.745 94.5711 19.775 94.6311 19.835C94.6911 19.885 94.7461 19.965 94.7961 20.075L95.5911 21.875C95.0411 22.325 94.4311 22.665 93.7611 22.895C93.1011 23.125 92.4261 23.24 91.7361 23.24C90.6461 23.24 89.7811 22.945 89.1411 22.355C88.5111 21.765 88.1811 20.935 88.1511 19.865ZM103.84 20.375C104.46 20.375 105.02 20.2 105.52 19.85C106.02 19.49 106.445 19.015 106.795 18.425C107.145 17.825 107.415 17.13 107.605 16.34C107.795 15.55 107.89 14.72 107.89 13.85C107.89 12.6 107.68 11.685 107.26 11.105C106.84 10.515 106.2 10.22 105.34 10.22C104.72 10.22 104.155 10.395 103.645 10.745C103.145 11.095 102.72 11.57 102.37 12.17C102.02 12.76 101.75 13.45 101.56 14.24C101.37 15.03 101.275 15.865 101.275 16.745C101.275 17.995 101.485 18.915 101.905 19.505C102.325 20.085 102.97 20.375 103.84 20.375ZM103.495 23.225C102.645 23.225 101.86 23.085 101.14 22.805C100.42 22.515 99.7952 22.095 99.2652 21.545C98.7352 20.995 98.3202 20.32 98.0202 19.52C97.7202 18.72 97.5702 17.805 97.5702 16.775C97.5702 15.445 97.7852 14.205 98.2152 13.055C98.6452 11.905 99.2252 10.91 99.9552 10.07C100.695 9.23 101.555 8.57 102.535 8.09C103.515 7.61 104.56 7.37 105.67 7.37C106.52 7.37 107.305 7.515 108.025 7.805C108.755 8.085 109.38 8.5 109.9 9.05C110.43 9.6 110.845 10.275 111.145 11.075C111.445 11.875 111.595 12.79 111.595 13.82C111.595 15.14 111.38 16.375 110.95 17.525C110.52 18.665 109.935 19.66 109.195 20.51C108.465 21.35 107.61 22.015 106.63 22.505C105.65 22.985 104.605 23.225 103.495 23.225Z" fill="#333333"/>
</svg>
