<svg width="120" height="25" viewBox="0 0 120 25" fill="none" xmlns="http://www.w3.org/2000/svg">
<path d="M8.664 12.576C9.48533 12.576 10.1947 12.4533 10.792 12.208C11.3893 11.9627 11.88 11.6213 12.264 11.184C12.6587 10.736 12.9467 10.208 13.128 9.6C13.32 8.992 13.416 8.32 13.416 7.584C13.416 7.06133 13.3413 6.58133 13.192 6.144C13.0427 5.70667 12.8133 5.33867 12.504 5.04C12.1947 4.73067 11.8053 4.49067 11.336 4.32C10.8773 4.14933 10.328 4.064 9.688 4.064H6.808L5.768 12.576H8.664ZM10.088 0.863998C11.4 0.863998 12.5253 1.024 13.464 1.344C14.4133 1.65333 15.192 2.09067 15.8 2.656C16.408 3.22133 16.856 3.89333 17.144 4.672C17.4427 5.44 17.592 6.288 17.592 7.216C17.592 8.45333 17.3947 9.6 17 10.656C16.616 11.7013 16.0347 12.608 15.256 13.376C14.4773 14.1333 13.5013 14.7307 12.328 15.168C11.1653 15.5947 9.80533 15.808 8.248 15.808H5.368L4.36 24H0.232L3.048 0.863998H10.088ZM28.02 10.176C27.8707 10.1653 27.7267 10.16 27.588 10.16C27.46 10.1493 27.332 10.144 27.204 10.144C26.3187 10.144 25.4973 10.3467 24.74 10.752C23.9827 11.1573 23.3267 11.7067 22.772 12.4C22.228 13.0827 21.796 13.8827 21.476 14.8C21.1667 15.7067 21.012 16.6667 21.012 17.68C21.012 18.832 21.1933 19.6747 21.556 20.208C21.9187 20.7413 22.4147 21.008 23.044 21.008C23.4813 21.008 23.908 20.8587 24.324 20.56C24.7507 20.2507 25.1507 19.8347 25.524 19.312C25.908 18.7787 26.2547 18.1547 26.564 17.44C26.884 16.7253 27.1613 15.9573 27.396 15.136L28.02 10.176ZM26.932 20.576C26.2067 21.696 25.3853 22.5867 24.468 23.248C23.5613 23.9093 22.5693 24.24 21.492 24.24C20.8733 24.24 20.292 24.1173 19.748 23.872C19.2147 23.6267 18.7453 23.264 18.34 22.784C17.9453 22.2933 17.6307 21.6853 17.396 20.96C17.172 20.224 17.06 19.3653 17.06 18.384C17.06 17.4027 17.1827 16.448 17.428 15.52C17.6733 14.592 18.02 13.7227 18.468 12.912C18.9267 12.0907 19.476 11.3387 20.116 10.656C20.756 9.97333 21.4707 9.38667 22.26 8.896C23.06 8.40533 23.9187 8.02667 24.836 7.76C25.764 7.48267 26.74 7.344 27.764 7.344C28.5 7.344 29.236 7.39733 29.972 7.504C30.7187 7.61067 31.444 7.80267 32.148 8.08L30.18 24H28.084C27.5827 24 27.2413 23.8773 27.06 23.632C26.8893 23.376 26.804 23.0613 26.804 22.688L26.932 20.576ZM33.8443 24L36.7243 0.223999H40.6283L37.7323 24H33.8443ZM48.1733 21.2C48.8346 21.2 49.4319 21.0133 49.9653 20.64C50.4986 20.256 50.9519 19.7493 51.3253 19.12C51.6986 18.48 51.9866 17.7387 52.1893 16.896C52.3919 16.0533 52.4933 15.168 52.4933 14.24C52.4933 12.9067 52.2693 11.9307 51.8213 11.312C51.3733 10.6827 50.6906 10.368 49.7733 10.368C49.1119 10.368 48.5093 10.5547 47.9653 10.928C47.4319 11.3013 46.9786 11.808 46.6053 12.448C46.2319 13.0773 45.9439 13.8133 45.7413 14.656C45.5386 15.4987 45.4373 16.3893 45.4373 17.328C45.4373 18.6613 45.6613 19.6427 46.1093 20.272C46.5573 20.8907 47.2453 21.2 48.1733 21.2ZM47.8053 24.24C46.8986 24.24 46.0613 24.0907 45.2933 23.792C44.5253 23.4827 43.8586 23.0347 43.2933 22.448C42.7279 21.8613 42.2853 21.1413 41.9653 20.288C41.6453 19.4347 41.4853 18.4587 41.4853 17.36C41.4853 15.9413 41.7146 14.6187 42.1733 13.392C42.6319 12.1653 43.2506 11.104 44.0293 10.208C44.8186 9.312 45.7359 8.608 46.7813 8.096C47.8266 7.584 48.9413 7.328 50.1253 7.328C51.0319 7.328 51.8693 7.48267 52.6373 7.792C53.4159 8.09067 54.0826 8.53333 54.6373 9.12C55.2026 9.70667 55.6453 10.4267 55.9653 11.28C56.2853 12.1333 56.4453 13.1093 56.4453 14.208C56.4453 15.616 56.2159 16.9333 55.7573 18.16C55.2986 19.376 54.6746 20.4373 53.8853 21.344C53.1066 22.24 52.1946 22.9493 51.1493 23.472C50.1039 23.984 48.9893 24.24 47.8053 24.24ZM77.257 15.296L75.689 7.376C75.625 7.01333 75.5503 6.592 75.465 6.112C75.3797 5.632 75.2943 5.10933 75.209 4.544C74.9957 5.10933 74.7877 5.632 74.585 6.112C74.3823 6.592 74.201 7.01867 74.041 7.392L70.537 15.296H77.257ZM83.289 24H80.073C79.7103 24 79.4277 23.9147 79.225 23.744C79.033 23.5627 78.8943 23.3333 78.809 23.056L77.849 18.224H69.225L67.081 23.056C66.9637 23.3013 66.7717 23.52 66.505 23.712C66.249 23.904 65.9503 24 65.609 24H62.345L73.529 0.863998H77.769L83.289 24ZM85.1255 24L88.0055 0.223999H91.9095L89.0135 24H85.1255ZM94.0945 20.656C94.0945 20.5813 94.0945 20.496 94.0945 20.4C94.0945 20.2933 94.0998 20.144 94.1105 19.952C94.1318 19.7493 94.1585 19.488 94.1905 19.168C94.2332 18.8373 94.2865 18.416 94.3505 17.904L95.2625 10.544H93.7105C93.5185 10.544 93.3585 10.4747 93.2305 10.336C93.1132 10.1973 93.0758 9.98933 93.1185 9.712L93.2945 8.144L95.7905 7.712L97.1025 3.232C97.1772 3.01867 97.2892 2.85333 97.4385 2.736C97.5878 2.61867 97.7745 2.56 97.9985 2.56H100.111L99.4705 7.728H103.439L103.103 10.544H99.1185L98.2385 17.696C98.1852 18.1333 98.1425 18.48 98.1105 18.736C98.0785 18.992 98.0518 19.1947 98.0305 19.344C98.0198 19.4827 98.0145 19.584 98.0145 19.648C98.0145 19.7013 98.0145 19.7387 98.0145 19.76C98.0145 20.1653 98.1105 20.4853 98.3025 20.72C98.5052 20.9547 98.7878 21.072 99.1505 21.072C99.3745 21.072 99.5665 21.0453 99.7265 20.992C99.8865 20.928 100.025 20.864 100.142 20.8C100.26 20.736 100.367 20.6773 100.463 20.624C100.559 20.56 100.649 20.528 100.735 20.528C100.852 20.528 100.943 20.56 101.007 20.624C101.071 20.6773 101.129 20.7627 101.183 20.88L102.031 22.8C101.444 23.28 100.793 23.6427 100.079 23.888C99.3745 24.1333 98.6545 24.256 97.9185 24.256C96.7558 24.256 95.8332 23.9413 95.1505 23.312C94.4785 22.6827 94.1265 21.7973 94.0945 20.656ZM110.83 21.2C111.491 21.2 112.088 21.0133 112.622 20.64C113.155 20.256 113.608 19.7493 113.982 19.12C114.355 18.48 114.643 17.7387 114.846 16.896C115.048 16.0533 115.15 15.168 115.15 14.24C115.15 12.9067 114.926 11.9307 114.478 11.312C114.03 10.6827 113.347 10.368 112.43 10.368C111.768 10.368 111.166 10.5547 110.622 10.928C110.088 11.3013 109.635 11.808 109.262 12.448C108.888 13.0773 108.6 13.8133 108.398 14.656C108.195 15.4987 108.094 16.3893 108.094 17.328C108.094 18.6613 108.318 19.6427 108.766 20.272C109.214 20.8907 109.902 21.2 110.83 21.2ZM110.462 24.24C109.555 24.24 108.718 24.0907 107.95 23.792C107.182 23.4827 106.515 23.0347 105.95 22.448C105.384 21.8613 104.942 21.1413 104.622 20.288C104.302 19.4347 104.142 18.4587 104.142 17.36C104.142 15.9413 104.371 14.6187 104.83 13.392C105.288 12.1653 105.907 11.104 106.686 10.208C107.475 9.312 108.392 8.608 109.438 8.096C110.483 7.584 111.598 7.328 112.782 7.328C113.688 7.328 114.526 7.48267 115.294 7.792C116.072 8.09067 116.739 8.53333 117.294 9.12C117.859 9.70667 118.302 10.4267 118.622 11.28C118.942 12.1333 119.102 13.1093 119.102 14.208C119.102 15.616 118.872 16.9333 118.414 18.16C117.955 19.376 117.331 20.4373 116.542 21.344C115.763 22.24 114.851 22.9493 113.806 23.472C112.76 23.984 111.646 24.24 110.462 24.24Z" fill="#333333"/>
</svg>
