<svg width="14" height="14" viewBox="0 0 14 14" fill="none" xmlns="http://www.w3.org/2000/svg">
<path d="M13.722 6.59542C13.1727 5.43823 12.519 4.49448 11.761 3.76417L10.966 4.55917C11.6143 5.1787 12.179 5.98917 12.6673 6.99854C11.3673 9.68917 9.52197 10.9673 7.00009 10.9673C6.24311 10.9673 5.54587 10.8507 4.90837 10.6176L4.04697 11.479C4.93238 11.8879 5.91676 12.0923 7.00009 12.0923C10.0032 12.0923 12.2438 10.5282 13.722 7.40011C13.7814 7.2743 13.8122 7.1369 13.8122 6.99776C13.8122 6.85863 13.7814 6.72122 13.722 6.59542ZM12.7287 1.58542L12.0626 0.918543C12.051 0.90692 12.0372 0.897701 12.022 0.89141C12.0068 0.88512 11.9906 0.881882 11.9742 0.881882C11.9577 0.881882 11.9415 0.88512 11.9263 0.89141C11.9111 0.897701 11.8973 0.90692 11.8857 0.918543L10.1768 2.62667C9.23462 2.14542 8.17571 1.90479 7.00009 1.90479C3.99697 1.90479 1.75634 3.46886 0.278215 6.59698C0.218802 6.72279 0.187988 6.86019 0.187988 6.99932C0.187988 7.13846 0.218802 7.27586 0.278215 7.40167C0.868736 8.64542 1.57967 9.64235 2.41103 10.3925L0.75759 12.0454C0.734166 12.0689 0.721008 12.1006 0.721008 12.1338C0.721008 12.1669 0.734166 12.1987 0.75759 12.2221L1.42462 12.8892C1.44806 12.9126 1.47984 12.9258 1.51298 12.9258C1.54612 12.9258 1.5779 12.9126 1.60134 12.8892L12.7287 1.76229C12.7403 1.75068 12.7495 1.7369 12.7558 1.72172C12.7621 1.70655 12.7653 1.69028 12.7653 1.67386C12.7653 1.65743 12.7621 1.64116 12.7558 1.62599C12.7495 1.61081 12.7403 1.59703 12.7287 1.58542ZM1.3329 6.99854C2.63447 4.30792 4.47978 3.02979 7.00009 3.02979C7.85228 3.02979 8.62712 3.17604 9.33009 3.47339L8.23165 4.57182C7.71145 4.29427 7.1158 4.19126 6.5326 4.27799C5.94939 4.36472 5.4095 4.63661 4.99258 5.05353C4.57565 5.47046 4.30377 6.01034 4.21704 6.59355C4.1303 7.17676 4.23331 7.7724 4.51087 8.29261L3.20743 9.59604C2.48603 8.95932 1.86415 8.09667 1.3329 6.99854ZM5.18759 6.99854C5.18786 6.72302 5.25313 6.45144 5.37808 6.20588C5.50303 5.96032 5.68414 5.74769 5.9067 5.58528C6.12926 5.42286 6.387 5.31523 6.65898 5.27114C6.93095 5.22705 7.20949 5.24773 7.47197 5.33151L5.27056 7.53292C5.21538 7.36017 5.18739 7.17989 5.18759 6.99854Z" fill="black" fill-opacity="0.45"/>
<path d="M6.93785 8.75106C6.88379 8.75106 6.83051 8.74856 6.7777 8.74372L5.95238 9.56903C6.44878 9.75913 6.98961 9.80138 7.50949 9.69066C8.02938 9.57994 8.50607 9.321 8.88193 8.94514C9.25779 8.56928 9.51673 8.09259 9.62745 7.5727C9.73817 7.05282 9.69592 6.51199 9.50582 6.01559L8.68051 6.84091C8.68535 6.89372 8.68785 6.947 8.68785 7.00106C8.68798 7.23091 8.6428 7.45853 8.55489 7.6709C8.46699 7.88328 8.33809 8.07625 8.17556 8.23877C8.01304 8.4013 7.82007 8.5302 7.60769 8.6181C7.39532 8.70601 7.1677 8.75119 6.93785 8.75106Z" fill="black" fill-opacity="0.45"/>
</svg>
